PathFileType	4	(X/Y/Z)	Patient4_TMGait_0pt2_03_right_08.trc.trc
DataRate	CameraRate	NumFrames	NumMarkers	Units	OrigDataRate	OrigDataStartFrame	OrigNumFrames
46.979865771812	46.979865771812	7	33	mm	46.979865771812	18	       141
Frame#	Time	Sacral			L.Shoulder			Chest			R.Shoulder			Neck			R.ASIS			L.ASIS			R.Thigh.Superior			R.Thigh.Lateral			R.Thigh.Inferior			R.Patella			L.Thigh.Superior			L.Thigh.Lateral			L.Thigh.Inferior			L.Patella			L.Shank.Superior			L.Shank.Lateral			L.Shank.Inferior			R.Shank.Superior			R.Shank.Lateral			R.Shank.Inferior			R.Heel			R.Midfoot.Superior			R.Midfoot.Lateral			R.Toe			L.Heel			L.Midfoot.Lateral			L.Midfoot.Superior			L.Toe			L.Elbow			L.Wrist			R.Elbow			R.Wrist			
		X1	Y1	Z1	X2	Y2	Z2	X3	Y3	Z3	X4	Y4	Z4	X5	Y5	Z5	X6	Y6	Z6	X7	Y7	Z7	X8	Y8	Z8	X9	Y9	Z9	X10	Y10	Z10	X11	Y11	Z11	X12	Y12	Z12	X13	Y13	Z13	X14	Y14	Z14	X15	Y15	Z15	X16	Y16	Z16	X17	Y17	Z17	X18	Y18	Z18	X19	Y19	Z19	X20	Y20	Z20	X21	Y21	Z21	X22	Y22	Z22	X23	Y23	Z23	X24	Y24	Z24	X25	Y25	Z25	X26	Y26	Z26	X27	Y27	Z27	X28	Y28	Z28	X29	Y29	Z29	X30	Y30	Z30	X31	Y31	Z31	X32	Y32	Z32	X33	Y33	Z33	

18	17.411857142857	744.976781434837	1025.099923956582	403.114529901833	994.336672941974	1437.748773317358	263.583888472272	1038.165113230651	1374.009711397628	448.333642426647	913.356233906728	1460.895871756970	587.789518124969	920.659877857975	1505.289298222548	408.250698444533	936.094192235372	958.266599569220	576.838584032450	987.730447196613	964.977902353836	307.284227073158	999.264728069197	766.397958300992	559.896393077943	928.207019344078	656.137856986295	629.386415876392	1013.559545233823	603.706022974093	557.705941110285	1029.619633962920	520.608576191662	576.192664097885	999.634555992350	741.548149452303	340.867857665233	910.304141559489	632.729807314493	259.888240365247	972.271963532741	550.809250800175	336.919384436401	963.852040713163	484.711643357728	344.767976735140	936.412526449068	414.045007170800	332.073162903530	850.240516364222	302.455582043573	271.302524217909	885.384870182060	190.246574303223	349.078680404794	1006.476442766052	431.940409238339	593.509642091380	942.326384192693	331.394861139740	669.338953886176	996.518278904473	232.304368868453	621.282707247953	878.564543689119	50.821389965847	618.519676425456	1050.665704382965	118.470348561793	638.755605864715	971.025576007293	47.674852147243	682.398635927988	1174.572242474316	76.741608278905	650.919936247615	749.663838538568	38.212538522208	381.490458237237	827.444063764502	34.837850072530	304.100133936520	909.946913474134	95.412586870719	336.119936311593	1039.603083881206	42.223280806358	313.195349029953	1140.847820433228	1145.081695497022	118.373495688760	1391.619867087850	1184.570733612525	157.063148006738	709.331920495936	1180.272370079009	662.263969102687	642.470772742209	926.389505405975	661.102258920966	
19	17.433142857143	745.927594887114	1024.245978498640	406.923629068819	993.298601982694	1436.981848691112	267.119283325265	1037.717761844662	1373.768529359882	451.818817715090	912.999629128669	1460.615072169204	591.432881760291	919.675121986677	1504.586716393775	411.608607557982	936.819120005937	956.455080125988	580.247062555805	988.564268187786	964.694213689740	310.732385465578	997.872831689743	763.156969654643	563.560314028928	924.276511486677	653.181216893146	631.310372028089	1010.220508184613	600.967727241630	560.294113589677	1024.077648808712	518.883081626601	577.625408606232	998.262032537175	740.238022390358	342.771571925017	907.106238206174	633.063353999959	261.274668520283	967.831940174403	549.988645905523	337.804094982772	958.590250204643	484.552258621468	345.425926752882	931.412423509843	414.274639256642	332.576383129446	845.364745687960	302.700241410040	271.583978478736	880.805003403052	190.362534971670	349.138304455305	1002.989456594734	429.836038412017	594.925696573344	939.961416566356	327.772955866608	669.557674595306	996.434611037639	229.900412036954	621.473699962203	881.340186322297	47.662716617257	616.981843221221	1052.724861906713	116.078019505544	638.209239866245	973.351625516963	44.905610490093	681.299149698104	1176.676100484237	74.956243269230	650.706989009306	745.353571068619	38.161638713171	381.489482818985	823.128425441000	34.780715708186	304.077612651831	905.616572480554	95.366762530141	336.098559140366	1035.299236666905	42.220381743810	313.196246845849	1142.492278670834	1145.825014760999	122.181891766218	1391.955465239808	1191.833987160225	160.737938135846	711.268914785051	1178.564298798159	666.726870760176	646.095192019549	924.169835636568	666.011752972177	
20	17.454428571429	747.196549677936	1023.088721438077	411.252659983305	991.842359375384	1436.133432222851	271.132169734158	1037.325218559899	1373.399707637553	455.669668038432	912.890781659062	1459.974540807456	595.744027794062	918.587007282787	1503.690752749709	415.595305657369	938.179271920917	954.326556354658	583.802982924440	989.639567914684	964.417886512468	314.277632785006	997.245778521427	759.742771253512	567.082633788497	921.147348341599	650.008217546987	632.947744210156	1007.761203620324	598.078884706306	562.654707305021	1019.316139897392	516.645819787964	578.933074227151	997.216623989916	738.849200591256	344.548504710593	904.011547009252	633.386055246458	262.776693248988	963.583302005836	549.141900250684	338.684080357794	953.521789437845	484.351404728789	346.078953748137	926.522614323959	414.509847361897	333.123337708119	840.498501383076	303.014063418851	271.912942490688	876.255465665023	190.497307130851	349.185510931592	999.580372223217	427.303605487300	596.050731876901	936.800806982867	324.316201331999	669.290306689628	994.729072804382	227.374766826725	621.192770342165	881.072845960622	45.676857246767	614.861220184300	1052.133912527469	113.440746161435	637.063745624636	972.510630827867	42.717394616113	679.722068421373	1175.727589367900	71.987871898706	650.016082769790	741.034292274404	38.119546519791	381.481453146408	818.804126026549	34.725884441488	304.058039732973	901.285887671315	95.326243350544	336.058316714317	1030.984910861644	42.211022242915	313.189251801638	1143.020989736675	1145.780686636196	126.549395874651	1391.446665907393	1196.729663781531	164.662492888320	714.069136251444	1176.035486892489	672.373556401427	651.023522251299	921.016829046354	672.472703861716	
21	17.475714285714	748.778002551768	1021.764729211354	416.035820467893	990.084095808242	1435.346572566386	275.619948532096	1037.029685421929	1373.011072467663	459.885265857829	913.040753655703	1459.086319910157	600.686653176783	917.442041373166	1502.712991109087	420.206148740285	940.149899026269	952.080562429814	587.495021825903	990.959334309205	964.226347573470	317.927934648773	997.289465757953	756.281570626949	570.468739964712	918.781002010732	646.833013998897	634.453176033320	1005.980407382824	595.147582941669	564.824551662259	1015.281229729395	514.080044739940	580.185116394449	996.433334425481	737.440573239488	346.322121905896	901.015026173793	633.734903546602	264.439924322251	959.504373439772	548.313054346060	339.628752991123	948.609642225476	484.130193229431	346.783306617173	921.722701276413	414.779707464287	333.751088307726	835.621175155385	303.427927366047	272.322703695052	871.732443121669	190.670267563925	349.231063940274	996.305756237764	424.516371382954	596.981302192821	933.131060056789	321.040766965184	668.769657794285	991.808059837518	224.751204258083	620.598813475267	878.423255173303	44.473076780946	612.474000017138	1049.498755959354	110.659939997292	635.494184040272	969.271500348322	40.971234473430	677.922040340526	1172.530132592633	68.255811066761	648.961056785122	736.710069103917	38.096223891545	381.466727449926	814.475761132083	34.682590607057	304.047019021432	896.962274499504	95.297264216500	335.999976933299	1026.662753247658	42.192522305573	313.175000233086	1142.370714226199	1145.017230078443	131.430092055338	1390.120480232231	1199.263809129159	168.808983528494	717.591670027487	1172.965368416144	679.090372534651	657.062895761200	917.257907707552	680.352784371173	
22	17.497000000000	750.623715281983	1020.405756606290	421.201164090783	988.161804925439	1434.739565884189	280.548278223072	1036.873167848968	1372.686125331370	464.438267645306	913.456104199572	1458.052823881762	606.185325031728	916.302560114668	1501.755083051949	425.396313971969	942.656721242442	949.916954621976	591.320284435555	992.486125603513	964.160583751227	321.693217313459	997.889220791204	752.928353325205	573.755182399780	917.142101188394	643.867919903415	636.004887194385	1004.706030804941	592.307789664321	566.867136827360	1011.926911923755	511.394518443890	581.454545963689	995.856033224234	736.074892102933	348.233183248321	898.161023517704	634.125697205086	266.329164926679	955.645795930756	547.540564518702	340.731001350202	943.907971063455	483.900816733812	347.624963293526	917.067681492249	415.088418993717	334.521468474200	830.770344309083	303.965515662262	272.867169383549	867.261810345274	190.886390123548	349.300011365036	993.242044492259	421.672888142241	597.829057291567	929.279054683757	318.008261273913	668.248562371567	988.105978437582	222.117870596750	619.870002692492	874.112160548709	43.747565171063	610.127775324890	1045.447804962528	107.900012901112	633.719984168682	964.431875709976	39.584212229834	676.150645568584	1167.874314148243	64.233291477085	647.706383346681	732.387661835199	38.106482787183	381.447788035945	810.151036963877	34.664408506928	304.051942319081	892.656537386870	95.285517884638	335.930648371582	1022.338234619106	42.158417261243	313.155418579154	1140.527926414585	1143.605359556017	136.768932033532	1388.025306510152	1199.458039981798	173.145446618343	721.721358255569	1169.588732604779	686.721829141397	664.047698781863	913.172605018760	689.467842296090	
23	17.518285714286	752.649098958874	1019.131299397157	426.679921710343	986.220370843004	1434.396210282904	285.850295855104	1036.892203414385	1372.479586889327	469.274045482633	914.139075788519	1456.964800987611	612.128274170533	915.240951717833	1500.903485374172	431.079996585718	945.583351433006	948.016531834956	595.287506137415	994.142711928534	964.227642521397	325.583310647279	998.928758862710	749.854030439796	577.004972881455	916.200746967926	641.296811313496	637.775174007903	1003.819210947115	589.701126388267	568.867699195080	1009.220748243012	508.795667223765	582.810048235058	995.438873576180	734.814857395325	350.415336331181	895.525724600962	634.556880594739	268.517401130337	952.114820767631	546.854512706520	342.089189938116	939.543335124270	483.666760593795	348.702474849214	912.673581333352	415.418656284251	335.507829772770	826.030226466928	304.642399794702	273.611832703760	862.892901077510	191.138669208359	349.427024301458	990.474429256872	418.968546961624	598.700744121448	925.563842102663	315.305315434440	667.957298207863	984.029024591633	219.599475690685	619.171880819284	868.819242370855	43.293145786288	608.070632007564	1040.558351210835	105.339017052087	631.965554180484	958.715121131161	38.508310146197	674.611851949816	1162.450645255624	60.350687412618	646.432958296165	728.075897714660	38.170527580161	381.429226101350	805.839921472493	34.688877241852	304.081102224982	888.382090081639	95.296340192151	335.862310185048	1018.019054622600	42.099172416377	313.133121211160	1137.522454219951	1141.611311260919	142.508424138243	1385.222548850076	1197.336866728197	177.640338564604	726.368008555782	1166.090090886380	695.081518261940	671.841337467956	908.983536532154	699.589895265121	
24	17.539571428571	754.748154012854	1018.038871265364	432.417714416067	984.392277912584	1434.357671424923	291.430257619439	1037.111997222685	1372.416691393514	474.313234468341	915.087577858078	1455.900768956637	618.375767564092	914.329791633587	1500.223611016434	437.135276427654	948.789046180284	946.520046539256	599.417437485337	995.822436521510	964.407636209275	329.606574346175	1000.300320095063	747.214788029017	580.294401885158	915.922067046322	639.246940719533	639.903176979806	1003.248755708277	587.447038079222	570.918597154356	1007.130858875098	506.454691447890	584.304647752021	995.144480606794	733.717641887083	352.972372430027	893.191678167793	635.016556788866	271.070480634756	949.044206386951	546.274699219268	343.785030634485	935.677561244743	483.424278781714	350.103528572653	908.687122334497	415.739588587783	336.776388827936	821.508595434490	305.465824517406	274.619759879835	858.686062180099	191.413402328214	349.648729926123	988.074304646408	416.563756083576	599.677981298302	922.247240314443	313.011632279531	668.063609690008	979.910044696533	217.320685595929	618.627432143675	863.109412131490	42.986966268806	606.459049223100	1035.305631703922	103.121997898061	630.415338005484	952.701283976193	37.710693463758	673.432158574873	1156.795933244841	56.921035677414	645.297264500438	723.784627362684	38.313904661946	381.417324292578	801.553193175162	34.776310854328	304.142321603530	884.153512871312	95.334944862089	335.809125578196	1013.714012286201	42.003704840789	313.110628285865	1133.416980055313	1139.092760437492	148.592936790841	1381.773450027295	1192.920321507473	182.268435444861	731.461577345352	1162.607424031654	703.966058807145	680.336862607422	904.857511084069	710.459838634228	
